<svg id="Group_791" data-name="Group 791" xmlns="http://www.w3.org/2000/svg" width="180.678" height="67.96" viewBox="0 0 180.678 67.96">
  <path id="Path_754" data-name="Path 754" d="M578.234,79.533H576.22a15.208,15.208,0,0,0-3.793.486,17.082,17.082,0,0,0-7.4,3.918,16.662,16.662,0,0,0-5.51,12.363v15.822h3.943c6.8-.683,12.467-3.559,12.467-12.838V88.416s-.069-6.5,2.31-8.883m-8.65,10.022a1.694,1.694,0,0,0-.057.209c-1.212,4.02-.709,9.249-1.577,13.612a9.4,9.4,0,0,1-3.22,5.558,9.3,9.3,0,0,1-3.656,2.015c2.264-1.672,4.007-3.579,4.525-9.157.1-1.14.111-4.619.158-5.3a27.03,27.03,0,0,1,.328-2.946,21.765,21.765,0,0,1,1.252-4.424,20.136,20.136,0,0,1,3.7-5.519,12.627,12.627,0,0,1,2.153-1.791,7.527,7.527,0,0,1,2.373-1.005c-3.012,1.714-4.9,5.362-5.982,8.753" transform="translate(-526.919 -79.533)" fill="#185729"/>
  <path id="Path_755" data-name="Path 755" d="M548.874,123.746c-6.8.678-12.474,3.559-12.467,12.839v10.867s.07,6.508-2.32,8.884h2.026a15.233,15.233,0,0,0,3.793-.486,17.1,17.1,0,0,0,7.4-3.922,16.668,16.668,0,0,0,5.523-12.359V123.746Zm-2.133,10.331c-.114,1.14-.12,4.615-.166,5.3a23.962,23.962,0,0,1-.337,2.94A20.547,20.547,0,0,1,545,146.745a20.249,20.249,0,0,1-3.7,5.53,12.556,12.556,0,0,1-2.152,1.779,7.342,7.342,0,0,1-2.374,1.005c3.013-1.708,4.893-5.362,5.983-8.743.025-.068.041-.139.065-.209,1.211-4.023.7-9.252,1.568-13.618a9.428,9.428,0,0,1,3.219-5.553,9.212,9.212,0,0,1,3.658-2.013c-2.264,1.674-4.007,3.572-4.517,9.154" transform="translate(-520.234 -91.157)" fill="#7e2228"/>
  <path id="Path_756" data-name="Path 756" d="M535.035,100.647H524.176s-6.509.069-8.883-2.313v2.02a14.939,14.939,0,0,0,.486,3.794,16.96,16.96,0,0,0,3.92,7.4,16.657,16.657,0,0,0,12.356,5.519h15.824V113.12c-.677-6.81-3.553-12.48-12.844-12.473m-3.968,3.117s1.992-.03,2.957-.024a15.043,15.043,0,0,1,4.58.705,11.4,11.4,0,0,1,5.983,4.266,12.86,12.86,0,0,0-6.014-2.83,45.587,45.587,0,0,0-6.82-.461c-2.326.088-7.69-.008-11.546-2.488a11.6,11.6,0,0,1-1.965-1.489c3.608,2.293,10.435,2.374,12.825,2.32m7.9,10.95c-.285,0-1.3,0-1.544,0-3.739.107-7.944.171-11.323-2.337a15.473,15.473,0,0,1-1.305-1.085c2.628,1.818,9.027,2.081,9.027,2.081.534.031,3.292.083,4.174.215a9.39,9.39,0,0,1,5,1.93c-.136-.1-1.067-.712-4.032-.8m-1.409-3.736c-1.14-.107-4.621-.114-5.307-.164a25.145,25.145,0,0,1-2.948-.332,21.605,21.605,0,0,1-4.42-1.242,20.142,20.142,0,0,1-5.519-3.709,12.749,12.749,0,0,1-1.8-2.149,7.4,7.4,0,0,1-1-2.371c1.7,3.008,5.354,4.89,8.75,5.986.061.02.133.037.2.051,4.029,1.211,9.257.7,13.621,1.581a9.426,9.426,0,0,1,5.552,3.212A9.111,9.111,0,0,1,546.7,115.5c-1.662-2.266-3.568-4-9.144-4.52" transform="translate(-515.293 -84.476)" fill="#ffa600"/>
  <path id="Path_757" data-name="Path 757" d="M697.9,160.4h18.06V155.6H704.465v-7.551l11.5-.014v-5.355l-11.511.01v-7.6h11.511v-4.8H697.9Z" transform="translate(-563.303 -92.878)" fill="#185729"/>
  <path id="Path_758" data-name="Path 758" d="M587.061,145.488a9.184,9.184,0,0,0,.652-10.932,9.624,9.624,0,0,0-4.372-3.343,15.984,15.984,0,0,0-3.475-.7,49.629,49.629,0,0,0-5.681-.236H566.2V160.4h6.566V145.962l8.777,14.434h7.689l-8.213-11.97a10.114,10.114,0,0,0,6.04-2.937m-12.789-.708h-1.5V135.09h2.525a10.7,10.7,0,0,1,5.569,1.13,3.889,3.889,0,0,1,1.793,3.524,4.14,4.14,0,0,1-2.127,3.757,12.289,12.289,0,0,1-6.256,1.28" transform="translate(-528.678 -92.876)" fill="#185729"/>
  <path id="Path_759" data-name="Path 759" d="M612.671,139.986a11.7,11.7,0,1,0,11.693,11.7,11.7,11.7,0,0,0-11.693-11.7m0,17.481a5.781,5.781,0,1,1,5.772-5.787,5.791,5.791,0,0,1-5.772,5.787" transform="translate(-537.819 -95.427)" fill="#185729"/>
  <path id="Path_760" data-name="Path 760" d="M743.937,150.987l7.415-10.882h-6.557l-4.115,6.621-4.155-6.615h-6.556l7.391,10.875-8.236,12h6.614l4.942-7.2,4.927,7.2h6.583Z" transform="translate(-571.512 -95.458)" fill="#185729"/>
  <path id="Path_761" data-name="Path 761" d="M666.343,139.693a10.715,10.715,0,0,0-7.722,3.268,10.765,10.765,0,0,0-14.984-.453,1.012,1.012,0,0,0-.219.2V140h-5.791v22.878h6.581S644.2,150.7,644.2,150.69a4.943,4.943,0,1,1,9.886,0c0,.007-.007,12.185-.007,12.185h6.58s-.007-12.178-.007-12.185a4.939,4.939,0,1,1,9.878,0v12.178h6.574v-13.05a.258.258,0,0,0-.035-.063,10.756,10.756,0,0,0-10.728-10.063" transform="translate(-547.456 -95.35)" fill="#185729"/>
</svg>
