<svg id="Grupo_398" data-name="Grupo 398" xmlns="http://www.w3.org/2000/svg" width="275.257" height="103.534" viewBox="0 0 275.257 103.534">
  <path id="Trazado_20" data-name="Trazado 20" d="M65.555,42.26H62.487A23.167,23.167,0,0,0,56.71,43a26.015,26.015,0,0,0-11.278,5.969,25.384,25.384,0,0,0-8.4,18.834V91.908h6.009c10.362-1.042,18.992-5.421,18.992-19.558V55.792s-.105-9.91,3.519-13.532M52.379,57.529a2.294,2.294,0,0,0-.09.318c-1.845,6.124-1.08,14.09-2.4,20.737a14.329,14.329,0,0,1-4.9,8.467,14.163,14.163,0,0,1-5.57,3.07c3.448-2.548,6.1-5.452,6.895-13.95.157-1.736.168-7.037.24-8.08a41.157,41.157,0,0,1,.5-4.488,33.2,33.2,0,0,1,1.907-6.739A30.631,30.631,0,0,1,54.6,48.453a19.3,19.3,0,0,1,3.279-2.728,11.466,11.466,0,0,1,3.616-1.532c-4.589,2.612-7.465,8.17-9.111,13.335" transform="translate(12.621 -42.26)" fill="#fff"/>
  <path id="Trazado_21" data-name="Trazado 21" d="M43.037,71c-10.352,1.033-19,5.421-18.993,19.56v16.556s.107,9.915-3.535,13.534H23.6a23.205,23.205,0,0,0,5.779-.741,26.045,26.045,0,0,0,11.273-5.974A25.4,25.4,0,0,0,49.061,95.1V71Zm-3.25,15.739c-.173,1.736-.183,7.031-.252,8.08a36.738,36.738,0,0,1-.513,4.478,31.294,31.294,0,0,1-1.9,6.741,30.838,30.838,0,0,1-5.641,8.424,19.139,19.139,0,0,1-3.279,2.711A11.186,11.186,0,0,1,24.59,118.7c4.59-2.6,7.455-8.168,9.115-13.32.038-.1.062-.213.1-.318,1.845-6.13,1.069-14.1,2.389-20.747a14.362,14.362,0,0,1,4.9-8.46,14.035,14.035,0,0,1,5.573-3.066c-3.448,2.55-6.1,5.442-6.881,13.945" transform="translate(0.596 -21.35)" fill="#fff"/>
  <path id="Trazado_40" data-name="Trazado 40" d="M38.369,58H21.825s-9.916.105-13.532-3.524v3.077a22.782,22.782,0,0,0,.739,5.781A25.834,25.834,0,0,0,15,74.608a25.374,25.374,0,0,0,18.824,8.408H57.936v-6.01C56.9,66.632,52.523,57.994,38.369,58m-6.045,4.749s3.035-.047,4.506-.036a22.887,22.887,0,0,1,6.976,1.075,17.361,17.361,0,0,1,9.115,6.5,19.574,19.574,0,0,0-9.162-4.31,69.33,69.33,0,0,0-10.39-.7c-3.543.135-11.715-.012-17.589-3.79a17.619,17.619,0,0,1-2.994-2.268c5.5,3.493,15.9,3.618,19.538,3.535M44.353,79.435c-.435,0-1.98-.005-2.353,0-5.7.162-12.1.261-17.25-3.561a23.632,23.632,0,0,1-1.988-1.653c4,2.769,13.752,3.17,13.752,3.17.814.047,5.015.126,6.359.328,3.8.589,5.886,1.481,7.622,2.94-.206-.145-1.624-1.085-6.142-1.225m-2.147-5.692c-1.736-.162-7.04-.173-8.085-.251a38.243,38.243,0,0,1-4.492-.506,33,33,0,0,1-6.734-1.892,30.692,30.692,0,0,1-8.408-5.651,19.4,19.4,0,0,1-2.735-3.274,11.289,11.289,0,0,1-1.517-3.612c2.6,4.582,8.158,7.449,13.33,9.118a2.762,2.762,0,0,0,.3.078c6.138,1.845,14.1,1.073,20.752,2.408a14.362,14.362,0,0,1,8.458,4.894,13.881,13.881,0,0,1,3.06,5.573c-2.533-3.452-5.437-6.1-13.931-6.886" transform="translate(-8.293 -33.369)" fill="#fff"/>
  <path id="Trazado_41" data-name="Trazado 41" d="M126.985,121.117H154.5v-7.3H136.988v-11.5l17.521-.021V94.13l-17.537.016V82.572H154.51v-7.32H126.985Z" transform="translate(78.069 -18.254)" fill="#fff"/>
  <path id="Trazado_42" data-name="Trazado 42" d="M73.16,98.413a13.991,13.991,0,0,0,.993-16.654,14.654,14.654,0,0,0-6.66-5.093A24.4,24.4,0,0,0,62.2,75.606a75.63,75.63,0,0,0-8.654-.359H41.384v45.875h10V99.133l13.372,21.989H76.472L63.959,102.885c3.749-.656,7.026-2,9.2-4.473M53.676,97.335H51.387V82.57h3.846q5.771,0,8.484,1.721a5.926,5.926,0,0,1,2.731,5.369,6.308,6.308,0,0,1-3.241,5.724c-2.173,1.31-5.352,1.95-9.531,1.95" transform="translate(15.784 -18.258)" fill="#fff"/>
  <path id="Trazado_43" data-name="Trazado 43" d="M81.807,81.553A17.826,17.826,0,1,0,99.62,99.38,17.831,17.831,0,0,0,81.807,81.553m0,26.633A8.807,8.807,0,1,1,90.6,99.37a8.822,8.822,0,0,1-8.794,8.816" transform="translate(32.228 -13.67)" fill="#fff"/>
  <path id="Trazado_44" data-name="Trazado 44" d="M169.847,98.209l11.3-16.578h-9.989l-6.27,10.088-6.33-10.077h-9.987l11.261,16.568-12.548,18.276h10.075l7.529-10.974,7.506,10.974h10.029Z" transform="translate(92.836 -13.613)" fill="#fff"/>
  <path id="Trazado_45" data-name="Trazado 45" d="M131.557,81.363a16.327,16.327,0,0,0-11.765,4.979,16.4,16.4,0,0,0-22.829-.689,1.568,1.568,0,0,0-.333.308V81.826H87.809v34.855H97.834s-.01-18.553-.01-18.563a7.531,7.531,0,1,1,15.061,0c0,.01-.012,18.563-.012,18.563H122.9s-.01-18.553-.01-18.563a7.525,7.525,0,1,1,15.049,0V116.67h10.015V96.789a.35.35,0,0,0-.052-.1,16.388,16.388,0,0,0-16.343-15.331" transform="translate(49.564 -13.808)" fill="#fff"/>
</svg>
